<svg width="20" height="14" viewBox="0 0 20 14" fill="none" xmlns="http://www.w3.org/2000/svg">
<path d="M7.13477 2.10156C6.89453 2.10156 6.69238 2.02246 6.52832 1.86426C6.37012 1.7002 6.29102 1.50098 6.29102 1.2666C6.29102 1.03223 6.37305 0.835938 6.53711 0.677734C6.70117 0.513672 6.90039 0.431641 7.13477 0.431641H18.2178C18.4521 0.431641 18.6514 0.513672 18.8154 0.677734C18.9795 0.835938 19.0615 1.03223 19.0615 1.2666C19.0615 1.50684 18.9795 1.70605 18.8154 1.86426C18.6514 2.02246 18.4521 2.10156 18.2178 2.10156H7.13477ZM7.13477 7.49805C6.89453 7.49805 6.69238 7.41895 6.52832 7.26074C6.37012 7.09668 6.29102 6.89746 6.29102 6.66309C6.29102 6.42871 6.37305 6.23242 6.53711 6.07422C6.70117 5.91016 6.90039 5.82812 7.13477 5.82812H18.2178C18.4521 5.82812 18.6514 5.91016 18.8154 6.07422C18.9795 6.23242 19.0615 6.42871 19.0615 6.66309C19.0615 6.89746 18.9795 7.09668 18.8154 7.26074C18.6514 7.41895 18.4521 7.49805 18.2178 7.49805H7.13477ZM7.13477 12.8945C6.89453 12.8945 6.69238 12.8154 6.52832 12.6572C6.37012 12.499 6.29102 12.3027 6.29102 12.0684C6.29102 11.8281 6.37305 11.6289 6.53711 11.4707C6.70117 11.3066 6.90039 11.2246 7.13477 11.2246H18.2178C18.4521 11.2246 18.6514 11.3066 18.8154 11.4707C18.9795 11.6348 19.0615 11.834 19.0615 12.0684C19.0615 12.3027 18.9795 12.499 18.8154 12.6572C18.6514 12.8154 18.4521 12.8945 18.2178 12.8945H7.13477ZM1.92285 2.25977C1.64746 2.25977 1.41309 2.16309 1.21973 1.96973C1.02637 1.77051 0.929688 1.53613 0.929688 1.2666C0.929688 0.991211 1.02637 0.756836 1.21973 0.563477C1.41309 0.370117 1.64746 0.273438 1.92285 0.273438H3.42578C3.69531 0.273438 3.92676 0.370117 4.12012 0.563477C4.31934 0.756836 4.41895 0.991211 4.41895 1.2666C4.41895 1.53613 4.31934 1.77051 4.12012 1.96973C3.92676 2.16309 3.69531 2.25977 3.42578 2.25977H1.92285ZM1.92285 7.65625C1.64746 7.65625 1.41309 7.55957 1.21973 7.36621C1.02637 7.17285 0.929688 6.93848 0.929688 6.66309C0.929688 6.3877 1.02637 6.15332 1.21973 5.95996C1.41309 5.7666 1.64746 5.66992 1.92285 5.66992H3.42578C3.69531 5.66992 3.92676 5.7666 4.12012 5.95996C4.31934 6.15332 4.41895 6.3877 4.41895 6.66309C4.41895 6.93848 4.31934 7.17285 4.12012 7.36621C3.92676 7.55957 3.69531 7.65625 3.42578 7.65625H1.92285ZM1.92285 13.0527C1.64746 13.0527 1.41309 12.9561 1.21973 12.7627C1.02637 12.5693 0.929688 12.3379 0.929688 12.0684C0.929688 11.7871 1.02637 11.5498 1.21973 11.3564C1.41309 11.1631 1.64746 11.0664 1.92285 11.0664H3.42578C3.69531 11.0664 3.92676 11.1631 4.12012 11.3564C4.31934 11.5498 4.41895 11.7871 4.41895 12.0684C4.41895 12.3379 4.31934 12.5693 4.12012 12.7627C3.92676 12.9561 3.69531 13.0527 3.42578 13.0527H1.92285Z" fill="#FD025C"/>
</svg>
